<svg width="23" height="23" viewBox="0 0 23 23" fill="none" xmlns="http://www.w3.org/2000/svg">
<path d="M11.4893 22.3623C17.5801 22.3623 22.6074 17.335 22.6074 11.2549C22.6074 5.16406 17.5693 0.136719 11.4785 0.136719C5.39844 0.136719 0.381836 5.16406 0.381836 11.2549C0.381836 17.335 5.40918 22.3623 11.4893 22.3623ZM11.4893 14.9609C8.44922 14.9609 6.10742 16.0459 4.96875 17.292C3.50781 15.7129 2.61621 13.5967 2.61621 11.2549C2.61621 6.32422 6.55859 2.36035 11.4785 2.36035C16.4092 2.36035 20.373 6.32422 20.3838 11.2549C20.3838 13.5967 19.4922 15.7236 18.0205 17.3027C16.8818 16.0459 14.54 14.9609 11.4893 14.9609ZM11.4893 13.1992C13.5732 13.2207 15.1953 11.4375 15.1953 9.13867C15.1953 6.96875 13.5625 5.15332 11.4893 5.15332C9.42676 5.15332 7.7832 6.96875 7.79395 9.13867C7.80469 11.4375 9.41602 13.1885 11.4893 13.1992Z"/>
</svg>
