<svg width="20" height="19" viewBox="0 0 20 19" fill="none" xmlns="http://www.w3.org/2000/svg">
<path d="M10.9922 1.13281C10.9922 0.601562 10.5391 0.140625 10 0.140625C9.46094 0.140625 9.00781 0.601562 9.00781 1.13281V2.625C9.00781 3.16406 9.46094 3.61719 10 3.61719C10.5391 3.61719 10.9922 3.16406 10.9922 2.625V1.13281ZM14.0234 3.92188C13.6562 4.28906 13.6641 4.9375 14.0391 5.32031C14.4141 5.69531 15.0625 5.6875 15.4453 5.30469L16.5 4.24219C16.8672 3.875 16.8594 3.22656 16.4844 2.84375C16.1094 2.46875 15.4609 2.47656 15.0859 2.85938L14.0234 3.92188ZM4.55469 5.30469C4.92969 5.6875 5.57812 5.69531 5.95312 5.32031C6.32812 4.94531 6.33594 4.28906 5.96875 3.92188L4.91406 2.85938C4.53906 2.48438 3.89062 2.46875 3.52344 2.84375C3.14062 3.21875 3.13281 3.875 3.5 4.24219L4.55469 5.30469ZM10 4.97656C7.60938 4.97656 5.64844 6.9375 5.64844 9.32812C5.64844 11.7188 7.60938 13.6797 10 13.6797C12.3828 13.6797 14.3438 11.7188 14.3438 9.32812C14.3438 6.9375 12.3828 4.97656 10 4.97656ZM10 6.94531C11.2969 6.94531 12.375 8.03125 12.375 9.32812C12.375 10.625 11.2969 11.7109 10 11.7109C8.70312 11.7109 7.61719 10.625 7.61719 9.32812C7.61719 8.03125 8.70312 6.94531 10 6.94531ZM18.1953 10.3203C18.7344 10.3203 19.1875 9.86719 19.1875 9.32812C19.1875 8.78906 18.7344 8.33594 18.1953 8.33594H16.7109C16.1719 8.33594 15.7188 8.78906 15.7188 9.32812C15.7188 9.86719 16.1719 10.3203 16.7109 10.3203H18.1953ZM1.80469 8.33594C1.26562 8.33594 0.8125 8.78906 0.8125 9.32812C0.8125 9.86719 1.26562 10.3203 1.80469 10.3203H3.28906C3.82812 10.3203 4.28906 9.86719 4.28906 9.32812C4.28906 8.78906 3.82812 8.33594 3.28906 8.33594H1.80469ZM15.4297 13.3438C15.0547 12.9766 14.4062 12.9766 14.0234 13.3594C13.6562 13.7344 13.6641 14.375 14.0391 14.7578L15.1094 15.8125C15.4766 16.1875 16.125 16.1797 16.5078 15.7969C16.875 15.4219 16.875 14.7734 16.4922 14.3984L15.4297 13.3438ZM3.50781 14.3984C3.125 14.7734 3.11719 15.4219 3.48438 15.7891C3.86719 16.1719 4.51562 16.1797 4.89062 15.8125L5.95312 14.7578C6.32812 14.375 6.33594 13.7344 5.96875 13.3594C5.58594 12.9766 4.9375 12.9766 4.5625 13.3438L3.50781 14.3984ZM10.9922 16.0312C10.9922 15.4922 10.5391 15.0391 10 15.0391C9.46094 15.0391 9.00781 15.4922 9.00781 16.0312V17.5234C9.00781 18.0547 9.46094 18.5156 10 18.5156C10.5391 18.5156 10.9922 18.0547 10.9922 17.5234V16.0312Z"/>
</svg>
