  <svg width={20} height={19} viewBox="0 0 19 19" fill="none" xmlns="http://www.w3.org/2000/svg">
    <path d="M14.4215 12.5244C9.71696 12.5244 6.79107 9.72047 6.79107 5.18288C6.79107 3.90917 7.00451 2.75929 7.33356 2.13128C7.48475 1.83939 7.52921 1.66248 7.52921 1.44135C7.52921 1.06985 7.21795 0.680664 6.74661 0.680664C6.63989 0.680664 6.43534 0.716045 6.15076 0.822187C2.81578 2.1755 0.494629 5.63398 0.494629 9.3755C0.494629 14.7534 4.42546 18.6807 9.84147 18.6807C13.7012 18.6807 16.8849 16.6286 18.3434 13.3028C18.4679 13.0286 18.4946 12.7986 18.4946 12.6571C18.4946 12.206 18.1567 11.9229 17.7921 11.9229C17.5964 11.9229 17.4363 11.9495 17.1695 12.0644C16.4936 12.3475 15.4442 12.5244 14.4215 12.5244ZM2.23771 9.32243C2.23771 6.82808 3.49166 4.41334 5.53712 3.04233C5.297 3.74995 5.17249 4.53717 5.17249 5.39516C5.17249 10.835 8.53415 14.1077 14.128 14.1077C14.8751 14.1077 15.5243 14.0192 16.129 13.807C14.8395 15.7706 12.465 16.9558 9.89483 16.9558C5.46597 16.9558 2.23771 13.7362 2.23771 9.32243Z" 
    />
  </svg>
